<?xml version="1.0" encoding="UTF-8"?>
<svg width="16px" height="16px" viewBox="0 0 16 16" version="1.1" xmlns="http://www.w3.org/2000/svg" xmlns:xlink="http://www.w3.org/1999/xlink">
    <title>nav/icon-authority</title>
    <g id="nav/icon-authority" stroke="none" stroke-width="1" fill="none" fill-rule="evenodd">
        <g id="编组" transform="translate(1.465467, 0.338853)">
            <rect id="矩形" fill="#B7C2CD" x="0" y="5.95" width="13.2" height="8.8" rx="1.1"></rect>
            <path d="M6.81942064,7.96870951 C7.57881217,7.96870951 8.19442064,8.58431798 8.19442064,9.34370951 C8.19442064,9.91160231 7.85014538,10.3990853 7.35892035,10.608833 L7.3581743,13.1813012 L6.2581743,13.1813012 L6.25784574,10.5991763 C5.77841262,10.3843959 5.44442064,9.90305673 5.44442064,9.34370951 C5.44442064,8.58431798 6.06002911,7.96870951 6.81942064,7.96870951 Z M6.6,0.175 C9.41354562,0.175 11.7076929,2.39880864 11.8206418,5.18462588 L11.825,5.4 L10.175,5.4 C10.175,3.42558202 8.57441798,1.825 6.6,1.825 C4.68927292,1.825 3.12865236,3.3239842 3.02995544,5.21013549 L3.025,5.4 L1.375,5.4 C1.375,2.51431218 3.71431218,0.175 6.6,0.175 Z" id="形状结合" fill="#314558" fill-rule="nonzero"></path>
        </g>
    </g>
</svg>