<?xml version="1.0" encoding="UTF-8"?>
<svg width="16px" height="16px" viewBox="0 0 16 16" version="1.1" xmlns="http://www.w3.org/2000/svg" xmlns:xlink="http://www.w3.org/1999/xlink">
    <title>nav/icon-data</title>
    <g id="nav/icon-data" stroke="none" stroke-width="1" fill="none" fill-rule="evenodd">
        <path d="M14.053742,9.04500836 L14.053742,13.2953766 C14.053742,14.3999461 11.3674505,15.2953766 8.05374198,15.2953766 C4.74003348,15.2953766 2.05374198,14.3999461 2.05374198,13.2953766 L2.05374198,13.2953766 L2.05374198,9.04500836 C2.05374198,10.1495779 4.74003348,11.0450084 8.05374198,11.0450084 C11.2727731,11.0450084 13.8997274,10.2000144 14.0472113,9.13915756 L14.053742,9.04500836 Z M14.0304777,2.78432083 L14.0304777,7.78432083 C14.0304777,8.88889033 11.3441862,9.78432083 8.03047771,9.78432083 C4.8114466,9.78432083 2.18449226,8.93932682 2.03700837,7.87847003 L2.03047771,7.78432083 L2.03047771,2.78432083 L14.0304777,2.78432083 Z" id="形状结合" fill="#B7C2CD"></path>
        <ellipse id="椭圆形" fill="#314558" cx="8.03047771" cy="2.78432083" rx="6" ry="2"></ellipse>
    </g>
</svg>