<?xml version="1.0" standalone="no"?><!DOCTYPE svg PUBLIC "-//W3C//DTD SVG 1.1//EN" "http://www.w3.org/Graphics/SVG/1.1/DTD/svg11.dtd"><svg t="1626765955077" class="icon" viewBox="0 0 1024 1024" version="1.1" xmlns="http://www.w3.org/2000/svg" p-id="2825" xmlns:xlink="http://www.w3.org/1999/xlink" width="200" height="200"><defs><style type="text/css"></style></defs><path d="M172.316444 541.639111c16.099556 0 29.240889 13.084444 29.240889 29.297778v222.72h643.584v-222.72c0-16.156444 13.084444-29.297778 29.297778-29.297778h29.240889c16.156444 0 29.297778 13.084444 29.297778 29.297778v267.150222a44.316444 44.316444 0 0 1-37.944889 44.088889l-5.973333 0.398222H157.639111a44.088889 44.088889 0 0 1-43.463111-38.4L113.777778 838.087111v-267.150222c0-16.156444 13.084444-29.297778 29.240889-29.297778h29.297777z m377.173334-418.304l4.892444 4.266667 155.306667 157.297778c11.264 11.377778 11.264 29.696 0 41.130666l-20.878222 21.048889a29.240889 29.240889 0 0 1-41.358223 0.284445l-0.398222-0.341334-80.156444-82.261333v339.342222c0 16.156444-13.084444 29.240889-29.240889 29.240889h-29.240889a29.240889 29.240889 0 0 1-29.297778-29.240889V268.003556L399.644444 347.534222a29.240889 29.240889 0 0 1-41.528888-0.170666l-21.048889-21.333334a29.240889 29.240889 0 0 1 0-41.130666l155.306666-157.297778a43.463111 43.463111 0 0 1 57.116445-4.323556z" p-id="2826"></path></svg>