<?xml version="1.0" encoding="UTF-8"?>
<svg width="16px" height="16px" viewBox="0 0 16 16" version="1.1" xmlns="http://www.w3.org/2000/svg" xmlns:xlink="http://www.w3.org/1999/xlink">
    <title>nav/icon-finance</title>
    <g id="nav/icon-finance" stroke="none" stroke-width="1" fill="none" fill-rule="evenodd">
        <path d="M9.37775,5.17675 L5.85775,5.17675 C1.96175,5.17675 1.00175,12.83275 1.00175,12.83275 C1.00175,13.84075 1.81775,14.84875 2.82575,14.84875 L12.41775,14.84875 C13.42575,14.84875 14.24175,13.84075 14.24175,12.83275 C14.23375,12.83275 13.27375,5.17675 9.37775,5.17675 Z" id="形状" fill="#B7C2CD" fill-rule="nonzero"></path>
        <g id="编组" transform="translate(5.062830, 6.439882)" fill="#314558" fill-rule="nonzero">
            <path d="M3.71154413,0.75615775 L4.58456408,1.24384225 L3.905,2.45815775 L5,2.45869672 L5,3.45869672 L3.07,3.45815775 L3.07,4.34115775 L5.00994558,4.34127719 L5.00994558,5.34127719 L3.07,5.34115775 L3.07048872,6.39768206 L2.07048872,6.39768206 L2.07,5.34115775 L0.00994558102,5.34127719 L0.00994558102,4.34127719 L2.07,4.34115775 L2.07,3.45815775 L0,3.45869672 L0,2.45869672 L1.387,2.45815775 L0.708595366,1.24384225 L1.58161531,0.75615775 L2.532,2.45815775 L2.76,2.45815775 L3.71154413,0.75615775 Z" id="形状结合"></path>
        </g>
        <path d="M5.85775,4.48075 L9.19375,4.48075 C10.22575,4.48075 11.01775,2.24075 11.01775,2.24075 C11.01775,1.56875 10.95375,1.06475 9.80175,1.02475 C8.65775,0.98475 8.37775,1.82475 7.55375,1.82475 C6.70575,1.82475 6.28975,1.16875 5.24975,1.02475 C4.20975,0.88075 4.03375,1.56875 4.03375,2.24075 C4.03375,2.24075 4.82575,4.48075 5.85775,4.48075 Z" id="路径" fill="#314558" fill-rule="nonzero"></path>
    </g>
</svg>