<?xml version="1.0" encoding="UTF-8"?>
<svg width="16px" height="16px" viewBox="0 0 16 16" version="1.1" xmlns="http://www.w3.org/2000/svg" xmlns:xlink="http://www.w3.org/1999/xlink">
    <title>nav/icon-news-nor</title>
    <g id="nav/icon-news-nor" stroke="none" stroke-width="1" fill="none" fill-rule="evenodd">
        <g id="新闻" transform="translate(1.000000, 1.000000)" fill-rule="nonzero">
            <path d="M12.880006,6.72002039 C13.4985615,6.72002039 14,7.22147781 14,7.84001435 L14,13.4400408 C14,14.0585962 13.4985615,14.5600347 12.880006,14.5600347 L10.0800023,14.5600347 L10.0800023,6.72002039 L12.880006,6.72002039 L12.880006,6.72002039 Z" id="形状" fill="#314558"></path>
            <path d="M9.52000529,0 C10.4478384,0 11.1999962,0.752195571 11.1999962,1.6800287 L11.1999962,14.5600347 L1.67999094,14.5600347 C0.752157803,14.5600347 0,13.8078769 0,12.8800249 L0,1.6800287 C0,0.752195571 0.752157803,0 1.67997205,0 L9.5199864,0 L9.52000529,0 Z" id="形状" fill="#B7C2CD"></path>
            <path d="M2.99579028,3.68506526 L5.14660922,3.68506526 C5.51994054,3.68506526 5.7066062,3.87173092 5.7066062,4.24506224 L5.7066062,4.24506224 C5.7066062,4.61839356 5.51994054,4.80505922 5.14660922,4.80505922 L2.99579028,4.80505922 C2.62245896,4.80505922 2.4357933,4.61839356 2.4357933,4.24506224 L2.4357933,4.24506224 C2.4357933,3.87173092 2.62245896,3.68506526 2.99579028,3.68506526 Z" id="路径" fill="#314558"></path>
            <path d="M2.99579028,6.70045685 L7.76327088,6.70045685 C8.1366022,6.70045685 8.32326786,6.88712251 8.32326786,7.26045383 L8.32326786,7.26045383 C8.32326786,7.63378515 8.1366022,7.82045081 7.76327088,7.82045081 L2.99579028,7.82045081 C2.62245896,7.82045081 2.4357933,7.63378515 2.4357933,7.26045383 L2.4357933,7.26045383 C2.4357933,6.88712251 2.62245896,6.70045685 2.99579028,6.70045685 Z" id="路径" fill="#314558"></path>
        </g>
    </g>
</svg>