<?xml version="1.0" encoding="UTF-8"?>
<svg width="16px" height="16px" viewBox="0 0 16 16" version="1.1" xmlns="http://www.w3.org/2000/svg" xmlns:xlink="http://www.w3.org/1999/xlink">
    <title>nav/icon-product-nor</title>
    <g id="nav/icon-product-nor" stroke="none" stroke-width="1" fill="none" fill-rule="evenodd">
        <g id="产品" transform="translate(1.000000, 1.000000)" fill-rule="nonzero">
            <path d="M0.936793012,2.04274736 L6.84385561,0.0390334487 C6.92192258,-0.0130111496 7.02601239,-0.0130111496 7.10407936,0.0390334487 L12.7249015,1.88661341 C13.765795,2.30297111 13.765795,2.38103809 12.7249015,2.71932729 L7.15611893,4.56690725 C7.07805195,4.59292963 6.97396215,4.59292963 6.86987387,4.56690725 L0.442354614,2.43307155 C0.312243042,2.38102696 0.312243042,2.19887063 0.442354614,2.1728478 L0.936779289,2.04273623 L0.936793012,2.04274736 Z M6.11524068,13.310419 L0.286245062,11.2806777 C0.104088282,11.2286331 0,11.0464767 0,10.86432 L0,3.86431974 C0,3.55205184 0.312267895,3.34387375 0.598512957,3.44796203 L6.32342945,5.42566378 C6.45354102,5.47770838 6.53160753,5.58179773 6.53160753,5.71190885 L6.55762991,11.9052272 L6.55762991,13.0241876 C6.55762991,13.1803216 6.40149596,13.3364555 6.24536202,13.3104327 C6.19331742,13.3364551 6.14127267,13.3364551 6.11525044,13.3104327 L6.11524068,13.310419 Z" id="形状" fill="#B7C2CD"></path>
            <path d="M7.4683914,12.03532 L7.4683914,5.71189512 C7.4683914,5.58178355 7.54645837,5.4776942 7.67656949,5.42565006 L13.401486,3.44794831 C13.6356869,3.36988134 13.8959107,3.47397069 13.9739776,3.70817207 C14,3.76021666 14,3.81226141 14,3.86430601 L14,10.8643062 C14,11.046463 13.8698884,11.2286183 13.7137549,11.2806639 L7.91077147,13.3104053 C7.75463753,13.3624499 7.57248075,13.2843829 7.52043661,13.1282485 C7.52043661,13.1022261 7.49441423,13.0501815 7.49441423,13.0241591 L7.4683914,12.0353113 L7.4683914,12.03532 Z" id="路径" fill="#314558"></path>
        </g>
    </g>
</svg>