<?xml version="1.0" encoding="UTF-8"?>
<svg width="16px" height="16px" viewBox="0 0 16 16" version="1.1" xmlns="http://www.w3.org/2000/svg" xmlns:xlink="http://www.w3.org/1999/xlink">
    <title>nav/icon-stores-nor</title>
    <g id="nav/icon-stores-nor" stroke="none" stroke-width="1" fill="none" fill-rule="evenodd">
        <g id="编组" transform="translate(1.000000, 1.200000)">
            <path d="M2.63483489,2.86104442 L11.4040657,2.86104442 C11.9563504,2.86104442 12.4040657,3.30875967 12.4040657,3.86104442 L12.4040657,12.6302752 C12.4040657,13.1825599 11.9563504,13.6302752 11.4040657,13.6302752 L2.63483489,13.6302752 C2.08255014,13.6302752 1.63483489,13.1825599 1.63483489,12.6302752 L1.63483489,3.86104442 C1.63483489,3.30875967 2.08255014,2.86104442 2.63483489,2.86104442 Z" id="矩形" fill="#B7C2CD"></path>
            <path d="M2.00228054,0 L11.9977195,0 C12.4814667,5.7727089e-16 12.8958539,0.346267691 12.9818073,0.82231747 L13.7784748,5.23462978 C13.8243316,5.48860598 13.6556175,5.73166866 13.4016413,5.77752547 C13.2687749,5.80151524 13.1320262,5.76686573 13.0266148,5.68250092 L12.6081319,5.347573 C12.2758817,5.08166045 11.8117369,5.05515214 11.4513722,5.28150797 L10.0950526,6.13345294 C9.77484535,6.33458468 9.36857373,6.33789824 9.04512846,6.14201615 L7.63474388,5.2878714 C7.25780506,5.05959302 6.77586564,5.10496698 6.44815703,5.399587 L5.81184002,5.97165537 C5.48745315,6.26328903 5.01145785,6.31100863 4.63563459,6.0895726 L3.13230786,5.20380862 C2.81792718,5.01857471 2.42761043,5.01928336 2.11390444,5.20565761 L1.31127959,5.68250092 C0.980857663,5.87880618 0.553860913,5.77008315 0.35755565,5.43966122 C0.271964165,5.29559324 0.241233098,5.12547823 0.271008304,4.96056939 L1.01819268,0.82231747 C1.10414611,0.346267691 1.51853331,3.1090753e-16 2.00228054,0 Z" id="矩形" fill="#314558"></path>
            <line x1="4.92704741" y1="11.2505142" x2="9.23473972" y2="11.2505142" id="直线" stroke="#314558" stroke-linecap="round"></line>
        </g>
    </g>
</svg>